<svg xmlns="http://www.w3.org/2000/svg" version="1.1" xmlns:xlink="http://www.w3.org/1999/xlink" xmlns:svgjs="http://svgjs.com/svgjs" width="2160" height="1440" preserveAspectRatio="none" viewBox="0 0 2160 1440"><g mask="url(&quot;#SvgjsMask1017&quot;)" fill="none"><rect width="2160" height="1440" x="0" y="0" fill="rgba(0, 0, 0, 1)"></rect><path d="M52.62 192.96L117.57 230.46L117.57 305.46L52.62 342.96L-12.33 305.46L-12.33 230.46zM117.57 305.46L182.53 342.96L182.53 417.96L117.57 455.46L52.62 417.96L52.62 342.96zM52.62 642.96L117.57 680.46L117.57 755.46L52.62 792.96L-12.33 755.46L-12.33 680.46zM52.62 867.96L117.57 905.46L117.57 980.46L52.62 1017.96L-12.33 980.46L-12.33 905.46zM52.62 1092.96L117.57 1130.46L117.57 1205.46L52.62 1242.96L-12.33 1205.46L-12.33 1130.46zM117.57 1205.46L182.53 1242.96L182.53 1317.96L117.57 1355.46L52.62 1317.96L52.62 1242.96zM182.53 192.96L247.48 230.46L247.48 305.46L182.53 342.96L117.57 305.46L117.57 230.46zM247.48 305.46L312.44 342.96L312.44 417.96L247.48 455.46L182.53 417.96L182.53 342.96zM247.48 530.46L312.44 567.96L312.44 642.96L247.48 680.46L182.53 642.96L182.53 567.96zM182.53 642.96L247.48 680.46L247.48 755.46L182.53 792.96L117.57 755.46L117.57 680.46zM182.53 867.96L247.48 905.46L247.48 980.46L182.53 1017.96L117.57 980.46L117.57 905.46zM182.53 1092.96L247.48 1130.46L247.48 1205.46L182.53 1242.96L117.57 1205.46L117.57 1130.46zM247.48 1205.46L312.44 1242.96L312.44 1317.96L247.48 1355.46L182.53 1317.96L182.53 1242.96zM182.53 1317.96L247.48 1355.46L247.48 1430.46L182.53 1467.96L117.57 1430.46L117.57 1355.46zM247.48 1430.46L312.44 1467.96L312.44 1542.96L247.48 1580.46L182.53 1542.96L182.53 1467.96zM312.44 192.96L377.39 230.46L377.39 305.46L312.44 342.96L247.48 305.46L247.48 230.46zM312.44 642.96L377.39 680.46L377.39 755.46L312.44 792.96L247.48 755.46L247.48 680.46zM312.44 1092.96L377.39 1130.46L377.39 1205.46L312.44 1242.96L247.48 1205.46L247.48 1130.46zM377.39 1205.46L442.34 1242.96L442.34 1317.96L377.39 1355.46L312.44 1317.96L312.44 1242.96zM377.39 1430.46L442.34 1467.96L442.34 1542.96L377.39 1580.46L312.44 1542.96L312.44 1467.96zM442.34 -32.04L507.3 5.46L507.3 80.46L442.34 117.96L377.39 80.46L377.39 5.46zM507.3 80.46L572.25 117.96L572.25 192.96L507.3 230.46L442.34 192.96L442.34 117.96zM507.3 305.46L572.25 342.96L572.25 417.96L507.3 455.46L442.34 417.96L442.34 342.96zM442.34 642.96L507.3 680.46L507.3 755.46L442.34 792.96L377.39 755.46L377.39 680.46zM637.2 305.46L702.16 342.96L702.16 417.96L637.2 455.46L572.25 417.96L572.25 342.96zM572.25 642.96L637.2 680.46L637.2 755.46L572.25 792.96L507.3 755.46L507.3 680.46zM572.25 867.96L637.2 905.46L637.2 980.46L572.25 1017.96L507.3 980.46L507.3 905.46zM572.25 1092.96L637.2 1130.46L637.2 1205.46L572.25 1242.96L507.3 1205.46L507.3 1130.46zM572.25 1317.96L637.2 1355.46L637.2 1430.46L572.25 1467.96L507.3 1430.46L507.3 1355.46zM637.2 1430.46L702.16 1467.96L702.16 1542.96L637.2 1580.46L572.25 1542.96L572.25 1467.96zM767.11 305.46L832.07 342.96L832.07 417.96L767.11 455.46L702.16 417.96L702.16 342.96zM767.11 530.46L832.07 567.96L832.07 642.96L767.11 680.46L702.16 642.96L702.16 567.96zM702.16 642.96L767.11 680.46L767.11 755.46L702.16 792.96L637.2 755.46L637.2 680.46zM767.11 755.46L832.07 792.96L832.07 867.96L767.11 905.46L702.16 867.96L702.16 792.96zM702.16 867.96L767.11 905.46L767.11 980.46L702.16 1017.96L637.2 980.46L637.2 905.46zM767.11 980.46L832.07 1017.96L832.07 1092.96L767.11 1130.46L702.16 1092.96L702.16 1017.96zM702.16 1092.96L767.11 1130.46L767.11 1205.46L702.16 1242.96L637.2 1205.46L637.2 1130.46zM767.11 1205.46L832.07 1242.96L832.07 1317.96L767.11 1355.46L702.16 1317.96L702.16 1242.96zM832.06 -32.04L897.02 5.46L897.02 80.46L832.06 117.96L767.11 80.46L767.11 5.46zM897.02 80.46L961.97 117.96L961.97 192.96L897.02 230.46L832.06 192.96L832.06 117.96zM832.06 642.96L897.02 680.46L897.02 755.46L832.06 792.96L767.11 755.46L767.11 680.46zM832.06 867.96L897.02 905.46L897.02 980.46L832.06 1017.96L767.11 980.46L767.11 905.46zM832.06 1317.96L897.02 1355.46L897.02 1430.46L832.06 1467.96L767.11 1430.46L767.11 1355.46zM1026.93 305.46L1091.88 342.96L1091.88 417.96L1026.93 455.46L961.97 417.96L961.97 342.96zM1026.93 530.46L1091.88 567.96L1091.88 642.96L1026.93 680.46L961.97 642.96L961.97 567.96zM1026.93 980.46L1091.88 1017.96L1091.88 1092.96L1026.93 1130.46L961.97 1092.96L961.97 1017.96zM961.97 1317.96L1026.93 1355.46L1026.93 1430.46L961.97 1467.96L897.02 1430.46L897.02 1355.46zM1026.93 1430.46L1091.88 1467.96L1091.88 1542.96L1026.93 1580.46L961.97 1542.96L961.97 1467.96zM1091.88 192.96L1156.83 230.46L1156.83 305.46L1091.88 342.96L1026.93 305.46L1026.93 230.46zM1091.88 417.96L1156.83 455.46L1156.83 530.46L1091.88 567.96L1026.93 530.46L1026.93 455.46zM1156.83 755.46L1221.79 792.96L1221.79 867.96L1156.83 905.46L1091.88 867.96L1091.88 792.96zM1091.88 867.96L1156.83 905.46L1156.83 980.46L1091.88 1017.96L1026.93 980.46L1026.93 905.46zM1156.83 980.46L1221.79 1017.96L1221.79 1092.96L1156.83 1130.46L1091.88 1092.96L1091.88 1017.96zM1156.83 1205.46L1221.79 1242.96L1221.79 1317.96L1156.83 1355.46L1091.88 1317.96L1091.88 1242.96zM1221.79 -32.04L1286.74 5.46L1286.74 80.46L1221.79 117.96L1156.83 80.46L1156.83 5.46zM1221.79 192.96L1286.74 230.46L1286.74 305.46L1221.79 342.96L1156.83 305.46L1156.83 230.46zM1286.74 305.46L1351.69 342.96L1351.69 417.96L1286.74 455.46L1221.79 417.96L1221.79 342.96zM1286.74 530.46L1351.69 567.96L1351.69 642.96L1286.74 680.46L1221.79 642.96L1221.79 567.96zM1221.79 867.96L1286.74 905.46L1286.74 980.46L1221.79 1017.96L1156.83 980.46L1156.83 905.46zM1351.69 -32.04L1416.65 5.46L1416.65 80.46L1351.69 117.96L1286.74 80.46L1286.74 5.46zM1416.65 80.46L1481.6 117.96L1481.6 192.96L1416.65 230.46L1351.69 192.96L1351.69 117.96zM1351.69 642.96L1416.65 680.46L1416.65 755.46L1351.69 792.96L1286.74 755.46L1286.74 680.46zM1416.65 755.46L1481.6 792.96L1481.6 867.96L1416.65 905.46L1351.69 867.96L1351.69 792.96zM1351.69 1092.96L1416.65 1130.46L1416.65 1205.46L1351.69 1242.96L1286.74 1205.46L1286.74 1130.46zM1351.69 1317.96L1416.65 1355.46L1416.65 1430.46L1351.69 1467.96L1286.74 1430.46L1286.74 1355.46zM1416.65 1430.46L1481.6 1467.96L1481.6 1542.96L1416.65 1580.46L1351.69 1542.96L1351.69 1467.96zM1546.56 80.46L1611.51 117.96L1611.51 192.96L1546.56 230.46L1481.6 192.96L1481.6 117.96zM1546.56 305.46L1611.51 342.96L1611.51 417.96L1546.56 455.46L1481.6 417.96L1481.6 342.96zM1481.6 867.96L1546.56 905.46L1546.56 980.46L1481.6 1017.96L1416.65 980.46L1416.65 905.46zM1546.56 980.46L1611.51 1017.96L1611.51 1092.96L1546.56 1130.46L1481.6 1092.96L1481.6 1017.96zM1481.6 1092.96L1546.56 1130.46L1546.56 1205.46L1481.6 1242.96L1416.65 1205.46L1416.65 1130.46zM1611.51 192.96L1676.46 230.46L1676.46 305.46L1611.51 342.96L1546.56 305.46L1546.56 230.46zM1676.46 305.46L1741.42 342.96L1741.42 417.96L1676.46 455.46L1611.51 417.96L1611.51 342.96zM1676.46 755.46L1741.42 792.96L1741.42 867.96L1676.46 905.46L1611.51 867.96L1611.51 792.96zM1676.46 980.46L1741.42 1017.96L1741.42 1092.96L1676.46 1130.46L1611.51 1092.96L1611.51 1017.96zM1611.51 1092.96L1676.46 1130.46L1676.46 1205.46L1611.51 1242.96L1546.56 1205.46L1546.56 1130.46zM1676.46 1205.46L1741.42 1242.96L1741.42 1317.96L1676.46 1355.46L1611.51 1317.96L1611.51 1242.96zM1611.51 1317.96L1676.46 1355.46L1676.46 1430.46L1611.51 1467.96L1546.56 1430.46L1546.56 1355.46zM1676.46 1430.46L1741.42 1467.96L1741.42 1542.96L1676.46 1580.46L1611.51 1542.96L1611.51 1467.96zM1741.42 -32.04L1806.37 5.46L1806.37 80.46L1741.42 117.96L1676.46 80.46L1676.46 5.46zM1806.37 80.46L1871.32 117.96L1871.32 192.96L1806.37 230.46L1741.42 192.96L1741.42 117.96zM1741.42 192.96L1806.37 230.46L1806.37 305.46L1741.42 342.96L1676.46 305.46L1676.46 230.46zM1806.37 530.46L1871.32 567.96L1871.32 642.96L1806.37 680.46L1741.42 642.96L1741.42 567.96zM1806.37 755.46L1871.32 792.96L1871.32 867.96L1806.37 905.46L1741.42 867.96L1741.42 792.96zM1741.42 1317.96L1806.37 1355.46L1806.37 1430.46L1741.42 1467.96L1676.46 1430.46L1676.46 1355.46zM1806.37 1430.46L1871.32 1467.96L1871.32 1542.96L1806.37 1580.46L1741.42 1542.96L1741.42 1467.96zM1871.32 -32.04L1936.28 5.46L1936.28 80.46L1871.32 117.96L1806.37 80.46L1806.37 5.46zM1936.28 305.46L2001.23 342.96L2001.23 417.96L1936.28 455.46L1871.32 417.96L1871.32 342.96zM1871.32 642.96L1936.28 680.46L1936.28 755.46L1871.32 792.96L1806.37 755.46L1806.37 680.46zM1936.28 755.46L2001.23 792.96L2001.23 867.96L1936.28 905.46L1871.32 867.96L1871.32 792.96zM1936.28 980.46L2001.23 1017.96L2001.23 1092.96L1936.28 1130.46L1871.32 1092.96L1871.32 1017.96zM1936.28 1430.46L2001.23 1467.96L2001.23 1542.96L1936.28 1580.46L1871.32 1542.96L1871.32 1467.96zM2001.23 -32.04L2066.19 5.46L2066.19 80.46L2001.23 117.96L1936.28 80.46L1936.28 5.46zM2001.23 192.96L2066.19 230.46L2066.19 305.46L2001.23 342.96L1936.28 305.46L1936.28 230.46zM2001.23 867.96L2066.19 905.46L2066.19 980.46L2001.23 1017.96L1936.28 980.46L1936.28 905.46zM2066.19 1205.46L2131.14 1242.96L2131.14 1317.96L2066.19 1355.46L2001.23 1317.96L2001.23 1242.96zM2001.23 1317.96L2066.19 1355.46L2066.19 1430.46L2001.23 1467.96L1936.28 1430.46L1936.28 1355.46zM2131.14 -32.04L2196.09 5.46L2196.09 80.46L2131.14 117.96L2066.19 80.46L2066.19 5.46zM2131.14 192.96L2196.09 230.46L2196.09 305.46L2131.14 342.96L2066.19 305.46L2066.19 230.46zM2196.09 305.46L2261.05 342.96L2261.05 417.96L2196.09 455.46L2131.14 417.96L2131.14 342.96zM2131.14 417.96L2196.09 455.46L2196.09 530.46L2131.14 567.96L2066.19 530.46L2066.19 455.46zM2196.09 530.46L2261.05 567.96L2261.05 642.96L2196.09 680.46L2131.14 642.96L2131.14 567.96zM2131.14 642.96L2196.09 680.46L2196.09 755.46L2131.14 792.96L2066.19 755.46L2066.19 680.46zM2131.14 867.96L2196.09 905.46L2196.09 980.46L2131.14 1017.96L2066.19 980.46L2066.19 905.46z" stroke="rgba(115, 115, 115, 1)" stroke-width="2"></path><path d="M45.12 192.96 a7.5 7.5 0 1 0 15 0 a7.5 7.5 0 1 0 -15 0zM110.07 230.46 a7.5 7.5 0 1 0 15 0 a7.5 7.5 0 1 0 -15 0zM110.07 305.46 a7.5 7.5 0 1 0 15 0 a7.5 7.5 0 1 0 -15 0zM45.12 342.96 a7.5 7.5 0 1 0 15 0 a7.5 7.5 0 1 0 -15 0zM-19.83 305.46 a7.5 7.5 0 1 0 15 0 a7.5 7.5 0 1 0 -15 0zM-19.83 230.46 a7.5 7.5 0 1 0 15 0 a7.5 7.5 0 1 0 -15 0zM175.03 342.96 a7.5 7.5 0 1 0 15 0 a7.5 7.5 0 1 0 -15 0zM175.03 417.96 a7.5 7.5 0 1 0 15 0 a7.5 7.5 0 1 0 -15 0zM110.07 455.46 a7.5 7.5 0 1 0 15 0 a7.5 7.5 0 1 0 -15 0zM45.12 417.96 a7.5 7.5 0 1 0 15 0 a7.5 7.5 0 1 0 -15 0zM45.12 642.96 a7.5 7.5 0 1 0 15 0 a7.5 7.5 0 1 0 -15 0zM110.07 680.46 a7.5 7.5 0 1 0 15 0 a7.5 7.5 0 1 0 -15 0zM110.07 755.46 a7.5 7.5 0 1 0 15 0 a7.5 7.5 0 1 0 -15 0zM45.12 792.96 a7.5 7.5 0 1 0 15 0 a7.5 7.5 0 1 0 -15 0zM-19.83 755.46 a7.5 7.5 0 1 0 15 0 a7.5 7.5 0 1 0 -15 0zM-19.83 680.46 a7.5 7.5 0 1 0 15 0 a7.5 7.5 0 1 0 -15 0zM45.12 867.96 a7.5 7.5 0 1 0 15 0 a7.5 7.5 0 1 0 -15 0zM110.07 905.46 a7.5 7.5 0 1 0 15 0 a7.5 7.5 0 1 0 -15 0zM110.07 980.46 a7.5 7.5 0 1 0 15 0 a7.5 7.5 0 1 0 -15 0zM45.12 1017.96 a7.5 7.5 0 1 0 15 0 a7.5 7.5 0 1 0 -15 0zM-19.83 980.46 a7.5 7.5 0 1 0 15 0 a7.5 7.5 0 1 0 -15 0zM-19.83 905.46 a7.5 7.5 0 1 0 15 0 a7.5 7.5 0 1 0 -15 0zM45.12 1092.96 a7.5 7.5 0 1 0 15 0 a7.5 7.5 0 1 0 -15 0zM110.07 1130.46 a7.5 7.5 0 1 0 15 0 a7.5 7.5 0 1 0 -15 0zM110.07 1205.46 a7.5 7.5 0 1 0 15 0 a7.5 7.5 0 1 0 -15 0zM45.12 1242.96 a7.5 7.5 0 1 0 15 0 a7.5 7.5 0 1 0 -15 0zM-19.83 1205.46 a7.5 7.5 0 1 0 15 0 a7.5 7.5 0 1 0 -15 0zM-19.83 1130.46 a7.5 7.5 0 1 0 15 0 a7.5 7.5 0 1 0 -15 0zM175.03 1242.96 a7.5 7.5 0 1 0 15 0 a7.5 7.5 0 1 0 -15 0zM175.03 1317.96 a7.5 7.5 0 1 0 15 0 a7.5 7.5 0 1 0 -15 0zM110.07 1355.46 a7.5 7.5 0 1 0 15 0 a7.5 7.5 0 1 0 -15 0zM45.12 1317.96 a7.5 7.5 0 1 0 15 0 a7.5 7.5 0 1 0 -15 0zM175.03 192.96 a7.5 7.5 0 1 0 15 0 a7.5 7.5 0 1 0 -15 0zM239.98 230.46 a7.5 7.5 0 1 0 15 0 a7.5 7.5 0 1 0 -15 0zM239.98 305.46 a7.5 7.5 0 1 0 15 0 a7.5 7.5 0 1 0 -15 0zM304.94 342.96 a7.5 7.5 0 1 0 15 0 a7.5 7.5 0 1 0 -15 0zM304.94 417.96 a7.5 7.5 0 1 0 15 0 a7.5 7.5 0 1 0 -15 0zM239.98 455.46 a7.5 7.5 0 1 0 15 0 a7.5 7.5 0 1 0 -15 0zM239.98 530.46 a7.5 7.5 0 1 0 15 0 a7.5 7.5 0 1 0 -15 0zM304.94 567.96 a7.5 7.5 0 1 0 15 0 a7.5 7.5 0 1 0 -15 0zM304.94 642.96 a7.5 7.5 0 1 0 15 0 a7.5 7.5 0 1 0 -15 0zM239.98 680.46 a7.5 7.5 0 1 0 15 0 a7.5 7.5 0 1 0 -15 0zM175.03 642.96 a7.5 7.5 0 1 0 15 0 a7.5 7.5 0 1 0 -15 0zM175.03 567.96 a7.5 7.5 0 1 0 15 0 a7.5 7.5 0 1 0 -15 0zM239.98 755.46 a7.5 7.5 0 1 0 15 0 a7.5 7.5 0 1 0 -15 0zM175.03 792.96 a7.5 7.5 0 1 0 15 0 a7.5 7.5 0 1 0 -15 0zM175.03 867.96 a7.5 7.5 0 1 0 15 0 a7.5 7.5 0 1 0 -15 0zM239.98 905.46 a7.5 7.5 0 1 0 15 0 a7.5 7.5 0 1 0 -15 0zM239.98 980.46 a7.5 7.5 0 1 0 15 0 a7.5 7.5 0 1 0 -15 0zM175.03 1017.96 a7.5 7.5 0 1 0 15 0 a7.5 7.5 0 1 0 -15 0zM175.03 1092.96 a7.5 7.5 0 1 0 15 0 a7.5 7.5 0 1 0 -15 0zM239.98 1130.46 a7.5 7.5 0 1 0 15 0 a7.5 7.5 0 1 0 -15 0zM239.98 1205.46 a7.5 7.5 0 1 0 15 0 a7.5 7.5 0 1 0 -15 0zM304.94 1242.96 a7.5 7.5 0 1 0 15 0 a7.5 7.5 0 1 0 -15 0zM304.94 1317.96 a7.5 7.5 0 1 0 15 0 a7.5 7.5 0 1 0 -15 0zM239.98 1355.46 a7.5 7.5 0 1 0 15 0 a7.5 7.5 0 1 0 -15 0zM239.98 1430.46 a7.5 7.5 0 1 0 15 0 a7.5 7.5 0 1 0 -15 0zM175.03 1467.96 a7.5 7.5 0 1 0 15 0 a7.5 7.5 0 1 0 -15 0zM110.07 1430.46 a7.5 7.5 0 1 0 15 0 a7.5 7.5 0 1 0 -15 0zM304.94 1467.96 a7.5 7.5 0 1 0 15 0 a7.5 7.5 0 1 0 -15 0zM304.94 1542.96 a7.5 7.5 0 1 0 15 0 a7.5 7.5 0 1 0 -15 0zM239.98 1580.46 a7.5 7.5 0 1 0 15 0 a7.5 7.5 0 1 0 -15 0zM175.03 1542.96 a7.5 7.5 0 1 0 15 0 a7.5 7.5 0 1 0 -15 0zM304.94 192.96 a7.5 7.5 0 1 0 15 0 a7.5 7.5 0 1 0 -15 0zM369.89 230.46 a7.5 7.5 0 1 0 15 0 a7.5 7.5 0 1 0 -15 0zM369.89 305.46 a7.5 7.5 0 1 0 15 0 a7.5 7.5 0 1 0 -15 0zM369.89 680.46 a7.5 7.5 0 1 0 15 0 a7.5 7.5 0 1 0 -15 0zM369.89 755.46 a7.5 7.5 0 1 0 15 0 a7.5 7.5 0 1 0 -15 0zM304.94 792.96 a7.5 7.5 0 1 0 15 0 a7.5 7.5 0 1 0 -15 0zM304.94 1092.96 a7.5 7.5 0 1 0 15 0 a7.5 7.5 0 1 0 -15 0zM369.89 1130.46 a7.5 7.5 0 1 0 15 0 a7.5 7.5 0 1 0 -15 0zM369.89 1205.46 a7.5 7.5 0 1 0 15 0 a7.5 7.5 0 1 0 -15 0zM434.84 1242.96 a7.5 7.5 0 1 0 15 0 a7.5 7.5 0 1 0 -15 0zM434.84 1317.96 a7.5 7.5 0 1 0 15 0 a7.5 7.5 0 1 0 -15 0zM369.89 1355.46 a7.5 7.5 0 1 0 15 0 a7.5 7.5 0 1 0 -15 0zM369.89 1430.46 a7.5 7.5 0 1 0 15 0 a7.5 7.5 0 1 0 -15 0zM434.84 1467.96 a7.5 7.5 0 1 0 15 0 a7.5 7.5 0 1 0 -15 0zM434.84 1542.96 a7.5 7.5 0 1 0 15 0 a7.5 7.5 0 1 0 -15 0zM369.89 1580.46 a7.5 7.5 0 1 0 15 0 a7.5 7.5 0 1 0 -15 0zM434.84 -32.04 a7.5 7.5 0 1 0 15 0 a7.5 7.5 0 1 0 -15 0zM499.8 5.46 a7.5 7.5 0 1 0 15 0 a7.5 7.5 0 1 0 -15 0zM499.8 80.46 a7.5 7.5 0 1 0 15 0 a7.5 7.5 0 1 0 -15 0zM434.84 117.96 a7.5 7.5 0 1 0 15 0 a7.5 7.5 0 1 0 -15 0zM369.89 80.46 a7.5 7.5 0 1 0 15 0 a7.5 7.5 0 1 0 -15 0zM369.89 5.46 a7.5 7.5 0 1 0 15 0 a7.5 7.5 0 1 0 -15 0zM564.75 117.96 a7.5 7.5 0 1 0 15 0 a7.5 7.5 0 1 0 -15 0zM564.75 192.96 a7.5 7.5 0 1 0 15 0 a7.5 7.5 0 1 0 -15 0zM499.8 230.46 a7.5 7.5 0 1 0 15 0 a7.5 7.5 0 1 0 -15 0zM434.84 192.96 a7.5 7.5 0 1 0 15 0 a7.5 7.5 0 1 0 -15 0zM499.8 305.46 a7.5 7.5 0 1 0 15 0 a7.5 7.5 0 1 0 -15 0zM564.75 342.96 a7.5 7.5 0 1 0 15 0 a7.5 7.5 0 1 0 -15 0zM564.75 417.96 a7.5 7.5 0 1 0 15 0 a7.5 7.5 0 1 0 -15 0zM499.8 455.46 a7.5 7.5 0 1 0 15 0 a7.5 7.5 0 1 0 -15 0zM434.84 417.96 a7.5 7.5 0 1 0 15 0 a7.5 7.5 0 1 0 -15 0zM434.84 342.96 a7.5 7.5 0 1 0 15 0 a7.5 7.5 0 1 0 -15 0zM434.84 642.96 a7.5 7.5 0 1 0 15 0 a7.5 7.5 0 1 0 -15 0zM499.8 680.46 a7.5 7.5 0 1 0 15 0 a7.5 7.5 0 1 0 -15 0zM499.8 755.46 a7.5 7.5 0 1 0 15 0 a7.5 7.5 0 1 0 -15 0zM434.84 792.96 a7.5 7.5 0 1 0 15 0 a7.5 7.5 0 1 0 -15 0zM629.7 305.46 a7.5 7.5 0 1 0 15 0 a7.5 7.5 0 1 0 -15 0zM694.66 342.96 a7.5 7.5 0 1 0 15 0 a7.5 7.5 0 1 0 -15 0zM694.66 417.96 a7.5 7.5 0 1 0 15 0 a7.5 7.5 0 1 0 -15 0zM629.7 455.46 a7.5 7.5 0 1 0 15 0 a7.5 7.5 0 1 0 -15 0zM564.75 642.96 a7.5 7.5 0 1 0 15 0 a7.5 7.5 0 1 0 -15 0zM629.7 680.46 a7.5 7.5 0 1 0 15 0 a7.5 7.5 0 1 0 -15 0zM629.7 755.46 a7.5 7.5 0 1 0 15 0 a7.5 7.5 0 1 0 -15 0zM564.75 792.96 a7.5 7.5 0 1 0 15 0 a7.5 7.5 0 1 0 -15 0zM564.75 867.96 a7.5 7.5 0 1 0 15 0 a7.5 7.5 0 1 0 -15 0zM629.7 905.46 a7.5 7.5 0 1 0 15 0 a7.5 7.5 0 1 0 -15 0zM629.7 980.46 a7.5 7.5 0 1 0 15 0 a7.5 7.5 0 1 0 -15 0zM564.75 1017.96 a7.5 7.5 0 1 0 15 0 a7.5 7.5 0 1 0 -15 0zM499.8 980.46 a7.5 7.5 0 1 0 15 0 a7.5 7.5 0 1 0 -15 0zM499.8 905.46 a7.5 7.5 0 1 0 15 0 a7.5 7.5 0 1 0 -15 0zM564.75 1092.96 a7.5 7.5 0 1 0 15 0 a7.5 7.5 0 1 0 -15 0zM629.7 1130.46 a7.5 7.5 0 1 0 15 0 a7.5 7.5 0 1 0 -15 0zM629.7 1205.46 a7.5 7.5 0 1 0 15 0 a7.5 7.5 0 1 0 -15 0zM564.75 1242.96 a7.5 7.5 0 1 0 15 0 a7.5 7.5 0 1 0 -15 0zM499.8 1205.46 a7.5 7.5 0 1 0 15 0 a7.5 7.5 0 1 0 -15 0zM499.8 1130.46 a7.5 7.5 0 1 0 15 0 a7.5 7.5 0 1 0 -15 0zM564.75 1317.96 a7.5 7.5 0 1 0 15 0 a7.5 7.5 0 1 0 -15 0zM629.7 1355.46 a7.5 7.5 0 1 0 15 0 a7.5 7.5 0 1 0 -15 0zM629.7 1430.46 a7.5 7.5 0 1 0 15 0 a7.5 7.5 0 1 0 -15 0zM564.75 1467.96 a7.5 7.5 0 1 0 15 0 a7.5 7.5 0 1 0 -15 0zM499.8 1430.46 a7.5 7.5 0 1 0 15 0 a7.5 7.5 0 1 0 -15 0zM499.8 1355.46 a7.5 7.5 0 1 0 15 0 a7.5 7.5 0 1 0 -15 0zM694.66 1467.96 a7.5 7.5 0 1 0 15 0 a7.5 7.5 0 1 0 -15 0zM694.66 1542.96 a7.5 7.5 0 1 0 15 0 a7.5 7.5 0 1 0 -15 0zM629.7 1580.46 a7.5 7.5 0 1 0 15 0 a7.5 7.5 0 1 0 -15 0zM564.75 1542.96 a7.5 7.5 0 1 0 15 0 a7.5 7.5 0 1 0 -15 0zM759.61 305.46 a7.5 7.5 0 1 0 15 0 a7.5 7.5 0 1 0 -15 0zM824.57 342.96 a7.5 7.5 0 1 0 15 0 a7.5 7.5 0 1 0 -15 0zM824.57 417.96 a7.5 7.5 0 1 0 15 0 a7.5 7.5 0 1 0 -15 0zM759.61 455.46 a7.5 7.5 0 1 0 15 0 a7.5 7.5 0 1 0 -15 0zM759.61 530.46 a7.5 7.5 0 1 0 15 0 a7.5 7.5 0 1 0 -15 0zM824.57 567.96 a7.5 7.5 0 1 0 15 0 a7.5 7.5 0 1 0 -15 0zM824.57 642.96 a7.5 7.5 0 1 0 15 0 a7.5 7.5 0 1 0 -15 0zM759.61 680.46 a7.5 7.5 0 1 0 15 0 a7.5 7.5 0 1 0 -15 0zM694.66 642.96 a7.5 7.5 0 1 0 15 0 a7.5 7.5 0 1 0 -15 0zM694.66 567.96 a7.5 7.5 0 1 0 15 0 a7.5 7.5 0 1 0 -15 0zM759.61 755.46 a7.5 7.5 0 1 0 15 0 a7.5 7.5 0 1 0 -15 0zM694.66 792.96 a7.5 7.5 0 1 0 15 0 a7.5 7.5 0 1 0 -15 0zM824.57 792.96 a7.5 7.5 0 1 0 15 0 a7.5 7.5 0 1 0 -15 0zM824.57 867.96 a7.5 7.5 0 1 0 15 0 a7.5 7.5 0 1 0 -15 0zM759.61 905.46 a7.5 7.5 0 1 0 15 0 a7.5 7.5 0 1 0 -15 0zM694.66 867.96 a7.5 7.5 0 1 0 15 0 a7.5 7.5 0 1 0 -15 0zM759.61 980.46 a7.5 7.5 0 1 0 15 0 a7.5 7.5 0 1 0 -15 0zM694.66 1017.96 a7.5 7.5 0 1 0 15 0 a7.5 7.5 0 1 0 -15 0zM824.57 1017.96 a7.5 7.5 0 1 0 15 0 a7.5 7.5 0 1 0 -15 0zM824.57 1092.96 a7.5 7.5 0 1 0 15 0 a7.5 7.5 0 1 0 -15 0zM759.61 1130.46 a7.5 7.5 0 1 0 15 0 a7.5 7.5 0 1 0 -15 0zM694.66 1092.96 a7.5 7.5 0 1 0 15 0 a7.5 7.5 0 1 0 -15 0zM759.61 1205.46 a7.5 7.5 0 1 0 15 0 a7.5 7.5 0 1 0 -15 0zM694.66 1242.96 a7.5 7.5 0 1 0 15 0 a7.5 7.5 0 1 0 -15 0zM824.57 1242.96 a7.5 7.5 0 1 0 15 0 a7.5 7.5 0 1 0 -15 0zM824.57 1317.96 a7.5 7.5 0 1 0 15 0 a7.5 7.5 0 1 0 -15 0zM759.61 1355.46 a7.5 7.5 0 1 0 15 0 a7.5 7.5 0 1 0 -15 0zM694.66 1317.96 a7.5 7.5 0 1 0 15 0 a7.5 7.5 0 1 0 -15 0zM824.56 -32.04 a7.5 7.5 0 1 0 15 0 a7.5 7.5 0 1 0 -15 0zM889.52 5.46 a7.5 7.5 0 1 0 15 0 a7.5 7.5 0 1 0 -15 0zM889.52 80.46 a7.5 7.5 0 1 0 15 0 a7.5 7.5 0 1 0 -15 0zM824.56 117.96 a7.5 7.5 0 1 0 15 0 a7.5 7.5 0 1 0 -15 0zM759.61 80.46 a7.5 7.5 0 1 0 15 0 a7.5 7.5 0 1 0 -15 0zM759.61 5.46 a7.5 7.5 0 1 0 15 0 a7.5 7.5 0 1 0 -15 0zM954.47 117.96 a7.5 7.5 0 1 0 15 0 a7.5 7.5 0 1 0 -15 0zM954.47 192.96 a7.5 7.5 0 1 0 15 0 a7.5 7.5 0 1 0 -15 0zM889.52 230.46 a7.5 7.5 0 1 0 15 0 a7.5 7.5 0 1 0 -15 0zM824.56 192.96 a7.5 7.5 0 1 0 15 0 a7.5 7.5 0 1 0 -15 0zM824.56 642.96 a7.5 7.5 0 1 0 15 0 a7.5 7.5 0 1 0 -15 0zM889.52 680.46 a7.5 7.5 0 1 0 15 0 a7.5 7.5 0 1 0 -15 0zM889.52 755.46 a7.5 7.5 0 1 0 15 0 a7.5 7.5 0 1 0 -15 0zM824.56 792.96 a7.5 7.5 0 1 0 15 0 a7.5 7.5 0 1 0 -15 0zM824.56 867.96 a7.5 7.5 0 1 0 15 0 a7.5 7.5 0 1 0 -15 0zM889.52 905.46 a7.5 7.5 0 1 0 15 0 a7.5 7.5 0 1 0 -15 0zM889.52 980.46 a7.5 7.5 0 1 0 15 0 a7.5 7.5 0 1 0 -15 0zM824.56 1017.96 a7.5 7.5 0 1 0 15 0 a7.5 7.5 0 1 0 -15 0zM824.56 1317.96 a7.5 7.5 0 1 0 15 0 a7.5 7.5 0 1 0 -15 0zM889.52 1355.46 a7.5 7.5 0 1 0 15 0 a7.5 7.5 0 1 0 -15 0zM889.52 1430.46 a7.5 7.5 0 1 0 15 0 a7.5 7.5 0 1 0 -15 0zM824.56 1467.96 a7.5 7.5 0 1 0 15 0 a7.5 7.5 0 1 0 -15 0zM759.61 1430.46 a7.5 7.5 0 1 0 15 0 a7.5 7.5 0 1 0 -15 0zM1019.43 305.46 a7.5 7.5 0 1 0 15 0 a7.5 7.5 0 1 0 -15 0zM1084.38 342.96 a7.5 7.5 0 1 0 15 0 a7.5 7.5 0 1 0 -15 0zM1084.38 417.96 a7.5 7.5 0 1 0 15 0 a7.5 7.5 0 1 0 -15 0zM1019.43 455.46 a7.5 7.5 0 1 0 15 0 a7.5 7.5 0 1 0 -15 0zM954.47 417.96 a7.5 7.5 0 1 0 15 0 a7.5 7.5 0 1 0 -15 0zM954.47 342.96 a7.5 7.5 0 1 0 15 0 a7.5 7.5 0 1 0 -15 0zM1019.43 530.46 a7.5 7.5 0 1 0 15 0 a7.5 7.5 0 1 0 -15 0zM1084.38 567.96 a7.5 7.5 0 1 0 15 0 a7.5 7.5 0 1 0 -15 0zM1084.38 642.96 a7.5 7.5 0 1 0 15 0 a7.5 7.5 0 1 0 -15 0zM1019.43 680.46 a7.5 7.5 0 1 0 15 0 a7.5 7.5 0 1 0 -15 0zM954.47 642.96 a7.5 7.5 0 1 0 15 0 a7.5 7.5 0 1 0 -15 0zM954.47 567.96 a7.5 7.5 0 1 0 15 0 a7.5 7.5 0 1 0 -15 0zM1019.43 980.46 a7.5 7.5 0 1 0 15 0 a7.5 7.5 0 1 0 -15 0zM1084.38 1017.96 a7.5 7.5 0 1 0 15 0 a7.5 7.5 0 1 0 -15 0zM1084.38 1092.96 a7.5 7.5 0 1 0 15 0 a7.5 7.5 0 1 0 -15 0zM1019.43 1130.46 a7.5 7.5 0 1 0 15 0 a7.5 7.5 0 1 0 -15 0zM954.47 1092.96 a7.5 7.5 0 1 0 15 0 a7.5 7.5 0 1 0 -15 0zM954.47 1017.96 a7.5 7.5 0 1 0 15 0 a7.5 7.5 0 1 0 -15 0zM954.47 1317.96 a7.5 7.5 0 1 0 15 0 a7.5 7.5 0 1 0 -15 0zM1019.43 1355.46 a7.5 7.5 0 1 0 15 0 a7.5 7.5 0 1 0 -15 0zM1019.43 1430.46 a7.5 7.5 0 1 0 15 0 a7.5 7.5 0 1 0 -15 0zM954.47 1467.96 a7.5 7.5 0 1 0 15 0 a7.5 7.5 0 1 0 -15 0zM1084.38 1467.96 a7.5 7.5 0 1 0 15 0 a7.5 7.5 0 1 0 -15 0zM1084.38 1542.96 a7.5 7.5 0 1 0 15 0 a7.5 7.5 0 1 0 -15 0zM1019.43 1580.46 a7.5 7.5 0 1 0 15 0 a7.5 7.5 0 1 0 -15 0zM954.47 1542.96 a7.5 7.5 0 1 0 15 0 a7.5 7.5 0 1 0 -15 0zM1084.38 192.96 a7.5 7.5 0 1 0 15 0 a7.5 7.5 0 1 0 -15 0zM1149.33 230.46 a7.5 7.5 0 1 0 15 0 a7.5 7.5 0 1 0 -15 0zM1149.33 305.46 a7.5 7.5 0 1 0 15 0 a7.5 7.5 0 1 0 -15 0zM1019.43 230.46 a7.5 7.5 0 1 0 15 0 a7.5 7.5 0 1 0 -15 0zM1149.33 455.46 a7.5 7.5 0 1 0 15 0 a7.5 7.5 0 1 0 -15 0zM1149.33 530.46 a7.5 7.5 0 1 0 15 0 a7.5 7.5 0 1 0 -15 0zM1149.33 755.46 a7.5 7.5 0 1 0 15 0 a7.5 7.5 0 1 0 -15 0zM1214.29 792.96 a7.5 7.5 0 1 0 15 0 a7.5 7.5 0 1 0 -15 0zM1214.29 867.96 a7.5 7.5 0 1 0 15 0 a7.5 7.5 0 1 0 -15 0zM1149.33 905.46 a7.5 7.5 0 1 0 15 0 a7.5 7.5 0 1 0 -15 0zM1084.38 867.96 a7.5 7.5 0 1 0 15 0 a7.5 7.5 0 1 0 -15 0zM1084.38 792.96 a7.5 7.5 0 1 0 15 0 a7.5 7.5 0 1 0 -15 0zM1149.33 980.46 a7.5 7.5 0 1 0 15 0 a7.5 7.5 0 1 0 -15 0zM1019.43 905.46 a7.5 7.5 0 1 0 15 0 a7.5 7.5 0 1 0 -15 0zM1214.29 1017.96 a7.5 7.5 0 1 0 15 0 a7.5 7.5 0 1 0 -15 0zM1214.29 1092.96 a7.5 7.5 0 1 0 15 0 a7.5 7.5 0 1 0 -15 0zM1149.33 1130.46 a7.5 7.5 0 1 0 15 0 a7.5 7.5 0 1 0 -15 0zM1149.33 1205.46 a7.5 7.5 0 1 0 15 0 a7.5 7.5 0 1 0 -15 0zM1214.29 1242.96 a7.5 7.5 0 1 0 15 0 a7.5 7.5 0 1 0 -15 0zM1214.29 1317.96 a7.5 7.5 0 1 0 15 0 a7.5 7.5 0 1 0 -15 0zM1149.33 1355.46 a7.5 7.5 0 1 0 15 0 a7.5 7.5 0 1 0 -15 0zM1084.38 1317.96 a7.5 7.5 0 1 0 15 0 a7.5 7.5 0 1 0 -15 0zM1084.38 1242.96 a7.5 7.5 0 1 0 15 0 a7.5 7.5 0 1 0 -15 0zM1214.29 -32.04 a7.5 7.5 0 1 0 15 0 a7.5 7.5 0 1 0 -15 0zM1279.24 5.46 a7.5 7.5 0 1 0 15 0 a7.5 7.5 0 1 0 -15 0zM1279.24 80.46 a7.5 7.5 0 1 0 15 0 a7.5 7.5 0 1 0 -15 0zM1214.29 117.96 a7.5 7.5 0 1 0 15 0 a7.5 7.5 0 1 0 -15 0zM1149.33 80.46 a7.5 7.5 0 1 0 15 0 a7.5 7.5 0 1 0 -15 0zM1149.33 5.46 a7.5 7.5 0 1 0 15 0 a7.5 7.5 0 1 0 -15 0zM1214.29 192.96 a7.5 7.5 0 1 0 15 0 a7.5 7.5 0 1 0 -15 0zM1279.24 230.46 a7.5 7.5 0 1 0 15 0 a7.5 7.5 0 1 0 -15 0zM1279.24 305.46 a7.5 7.5 0 1 0 15 0 a7.5 7.5 0 1 0 -15 0zM1214.29 342.96 a7.5 7.5 0 1 0 15 0 a7.5 7.5 0 1 0 -15 0zM1344.19 342.96 a7.5 7.5 0 1 0 15 0 a7.5 7.5 0 1 0 -15 0zM1344.19 417.96 a7.5 7.5 0 1 0 15 0 a7.5 7.5 0 1 0 -15 0zM1279.24 455.46 a7.5 7.5 0 1 0 15 0 a7.5 7.5 0 1 0 -15 0zM1214.29 417.96 a7.5 7.5 0 1 0 15 0 a7.5 7.5 0 1 0 -15 0zM1279.24 530.46 a7.5 7.5 0 1 0 15 0 a7.5 7.5 0 1 0 -15 0zM1344.19 567.96 a7.5 7.5 0 1 0 15 0 a7.5 7.5 0 1 0 -15 0zM1344.19 642.96 a7.5 7.5 0 1 0 15 0 a7.5 7.5 0 1 0 -15 0zM1279.24 680.46 a7.5 7.5 0 1 0 15 0 a7.5 7.5 0 1 0 -15 0zM1214.29 642.96 a7.5 7.5 0 1 0 15 0 a7.5 7.5 0 1 0 -15 0zM1214.29 567.96 a7.5 7.5 0 1 0 15 0 a7.5 7.5 0 1 0 -15 0zM1279.24 905.46 a7.5 7.5 0 1 0 15 0 a7.5 7.5 0 1 0 -15 0zM1279.24 980.46 a7.5 7.5 0 1 0 15 0 a7.5 7.5 0 1 0 -15 0zM1344.19 -32.04 a7.5 7.5 0 1 0 15 0 a7.5 7.5 0 1 0 -15 0zM1409.15 5.46 a7.5 7.5 0 1 0 15 0 a7.5 7.5 0 1 0 -15 0zM1409.15 80.46 a7.5 7.5 0 1 0 15 0 a7.5 7.5 0 1 0 -15 0zM1344.19 117.96 a7.5 7.5 0 1 0 15 0 a7.5 7.5 0 1 0 -15 0zM1474.1 117.96 a7.5 7.5 0 1 0 15 0 a7.5 7.5 0 1 0 -15 0zM1474.1 192.96 a7.5 7.5 0 1 0 15 0 a7.5 7.5 0 1 0 -15 0zM1409.15 230.46 a7.5 7.5 0 1 0 15 0 a7.5 7.5 0 1 0 -15 0zM1344.19 192.96 a7.5 7.5 0 1 0 15 0 a7.5 7.5 0 1 0 -15 0zM1409.15 680.46 a7.5 7.5 0 1 0 15 0 a7.5 7.5 0 1 0 -15 0zM1409.15 755.46 a7.5 7.5 0 1 0 15 0 a7.5 7.5 0 1 0 -15 0zM1344.19 792.96 a7.5 7.5 0 1 0 15 0 a7.5 7.5 0 1 0 -15 0zM1279.24 755.46 a7.5 7.5 0 1 0 15 0 a7.5 7.5 0 1 0 -15 0zM1474.1 792.96 a7.5 7.5 0 1 0 15 0 a7.5 7.5 0 1 0 -15 0zM1474.1 867.96 a7.5 7.5 0 1 0 15 0 a7.5 7.5 0 1 0 -15 0zM1409.15 905.46 a7.5 7.5 0 1 0 15 0 a7.5 7.5 0 1 0 -15 0zM1344.19 867.96 a7.5 7.5 0 1 0 15 0 a7.5 7.5 0 1 0 -15 0zM1344.19 1092.96 a7.5 7.5 0 1 0 15 0 a7.5 7.5 0 1 0 -15 0zM1409.15 1130.46 a7.5 7.5 0 1 0 15 0 a7.5 7.5 0 1 0 -15 0zM1409.15 1205.46 a7.5 7.5 0 1 0 15 0 a7.5 7.5 0 1 0 -15 0zM1344.19 1242.96 a7.5 7.5 0 1 0 15 0 a7.5 7.5 0 1 0 -15 0zM1279.24 1205.46 a7.5 7.5 0 1 0 15 0 a7.5 7.5 0 1 0 -15 0zM1279.24 1130.46 a7.5 7.5 0 1 0 15 0 a7.5 7.5 0 1 0 -15 0zM1344.19 1317.96 a7.5 7.5 0 1 0 15 0 a7.5 7.5 0 1 0 -15 0zM1409.15 1355.46 a7.5 7.5 0 1 0 15 0 a7.5 7.5 0 1 0 -15 0zM1409.15 1430.46 a7.5 7.5 0 1 0 15 0 a7.5 7.5 0 1 0 -15 0zM1344.19 1467.96 a7.5 7.5 0 1 0 15 0 a7.5 7.5 0 1 0 -15 0zM1279.24 1430.46 a7.5 7.5 0 1 0 15 0 a7.5 7.5 0 1 0 -15 0zM1279.24 1355.46 a7.5 7.5 0 1 0 15 0 a7.5 7.5 0 1 0 -15 0zM1474.1 1467.96 a7.5 7.5 0 1 0 15 0 a7.5 7.5 0 1 0 -15 0zM1474.1 1542.96 a7.5 7.5 0 1 0 15 0 a7.5 7.5 0 1 0 -15 0zM1409.15 1580.46 a7.5 7.5 0 1 0 15 0 a7.5 7.5 0 1 0 -15 0zM1344.19 1542.96 a7.5 7.5 0 1 0 15 0 a7.5 7.5 0 1 0 -15 0zM1539.06 80.46 a7.5 7.5 0 1 0 15 0 a7.5 7.5 0 1 0 -15 0zM1604.01 117.96 a7.5 7.5 0 1 0 15 0 a7.5 7.5 0 1 0 -15 0zM1604.01 192.96 a7.5 7.5 0 1 0 15 0 a7.5 7.5 0 1 0 -15 0zM1539.06 230.46 a7.5 7.5 0 1 0 15 0 a7.5 7.5 0 1 0 -15 0zM1539.06 305.46 a7.5 7.5 0 1 0 15 0 a7.5 7.5 0 1 0 -15 0zM1604.01 342.96 a7.5 7.5 0 1 0 15 0 a7.5 7.5 0 1 0 -15 0zM1604.01 417.96 a7.5 7.5 0 1 0 15 0 a7.5 7.5 0 1 0 -15 0zM1539.06 455.46 a7.5 7.5 0 1 0 15 0 a7.5 7.5 0 1 0 -15 0zM1474.1 417.96 a7.5 7.5 0 1 0 15 0 a7.5 7.5 0 1 0 -15 0zM1474.1 342.96 a7.5 7.5 0 1 0 15 0 a7.5 7.5 0 1 0 -15 0zM1539.06 905.46 a7.5 7.5 0 1 0 15 0 a7.5 7.5 0 1 0 -15 0zM1539.06 980.46 a7.5 7.5 0 1 0 15 0 a7.5 7.5 0 1 0 -15 0zM1474.1 1017.96 a7.5 7.5 0 1 0 15 0 a7.5 7.5 0 1 0 -15 0zM1409.15 980.46 a7.5 7.5 0 1 0 15 0 a7.5 7.5 0 1 0 -15 0zM1604.01 1017.96 a7.5 7.5 0 1 0 15 0 a7.5 7.5 0 1 0 -15 0zM1604.01 1092.96 a7.5 7.5 0 1 0 15 0 a7.5 7.5 0 1 0 -15 0zM1539.06 1130.46 a7.5 7.5 0 1 0 15 0 a7.5 7.5 0 1 0 -15 0zM1474.1 1092.96 a7.5 7.5 0 1 0 15 0 a7.5 7.5 0 1 0 -15 0zM1539.06 1205.46 a7.5 7.5 0 1 0 15 0 a7.5 7.5 0 1 0 -15 0zM1474.1 1242.96 a7.5 7.5 0 1 0 15 0 a7.5 7.5 0 1 0 -15 0zM1668.96 230.46 a7.5 7.5 0 1 0 15 0 a7.5 7.5 0 1 0 -15 0zM1668.96 305.46 a7.5 7.5 0 1 0 15 0 a7.5 7.5 0 1 0 -15 0zM1733.92 342.96 a7.5 7.5 0 1 0 15 0 a7.5 7.5 0 1 0 -15 0zM1733.92 417.96 a7.5 7.5 0 1 0 15 0 a7.5 7.5 0 1 0 -15 0zM1668.96 455.46 a7.5 7.5 0 1 0 15 0 a7.5 7.5 0 1 0 -15 0zM1668.96 755.46 a7.5 7.5 0 1 0 15 0 a7.5 7.5 0 1 0 -15 0zM1733.92 792.96 a7.5 7.5 0 1 0 15 0 a7.5 7.5 0 1 0 -15 0zM1733.92 867.96 a7.5 7.5 0 1 0 15 0 a7.5 7.5 0 1 0 -15 0zM1668.96 905.46 a7.5 7.5 0 1 0 15 0 a7.5 7.5 0 1 0 -15 0zM1604.01 867.96 a7.5 7.5 0 1 0 15 0 a7.5 7.5 0 1 0 -15 0zM1604.01 792.96 a7.5 7.5 0 1 0 15 0 a7.5 7.5 0 1 0 -15 0zM1668.96 980.46 a7.5 7.5 0 1 0 15 0 a7.5 7.5 0 1 0 -15 0zM1733.92 1017.96 a7.5 7.5 0 1 0 15 0 a7.5 7.5 0 1 0 -15 0zM1733.92 1092.96 a7.5 7.5 0 1 0 15 0 a7.5 7.5 0 1 0 -15 0zM1668.96 1130.46 a7.5 7.5 0 1 0 15 0 a7.5 7.5 0 1 0 -15 0zM1668.96 1205.46 a7.5 7.5 0 1 0 15 0 a7.5 7.5 0 1 0 -15 0zM1604.01 1242.96 a7.5 7.5 0 1 0 15 0 a7.5 7.5 0 1 0 -15 0zM1733.92 1242.96 a7.5 7.5 0 1 0 15 0 a7.5 7.5 0 1 0 -15 0zM1733.92 1317.96 a7.5 7.5 0 1 0 15 0 a7.5 7.5 0 1 0 -15 0zM1668.96 1355.46 a7.5 7.5 0 1 0 15 0 a7.5 7.5 0 1 0 -15 0zM1604.01 1317.96 a7.5 7.5 0 1 0 15 0 a7.5 7.5 0 1 0 -15 0zM1668.96 1430.46 a7.5 7.5 0 1 0 15 0 a7.5 7.5 0 1 0 -15 0zM1604.01 1467.96 a7.5 7.5 0 1 0 15 0 a7.5 7.5 0 1 0 -15 0zM1539.06 1430.46 a7.5 7.5 0 1 0 15 0 a7.5 7.5 0 1 0 -15 0zM1539.06 1355.46 a7.5 7.5 0 1 0 15 0 a7.5 7.5 0 1 0 -15 0zM1733.92 1467.96 a7.5 7.5 0 1 0 15 0 a7.5 7.5 0 1 0 -15 0zM1733.92 1542.96 a7.5 7.5 0 1 0 15 0 a7.5 7.5 0 1 0 -15 0zM1668.96 1580.46 a7.5 7.5 0 1 0 15 0 a7.5 7.5 0 1 0 -15 0zM1604.01 1542.96 a7.5 7.5 0 1 0 15 0 a7.5 7.5 0 1 0 -15 0zM1733.92 -32.04 a7.5 7.5 0 1 0 15 0 a7.5 7.5 0 1 0 -15 0zM1798.87 5.46 a7.5 7.5 0 1 0 15 0 a7.5 7.5 0 1 0 -15 0zM1798.87 80.46 a7.5 7.5 0 1 0 15 0 a7.5 7.5 0 1 0 -15 0zM1733.92 117.96 a7.5 7.5 0 1 0 15 0 a7.5 7.5 0 1 0 -15 0zM1668.96 80.46 a7.5 7.5 0 1 0 15 0 a7.5 7.5 0 1 0 -15 0zM1668.96 5.46 a7.5 7.5 0 1 0 15 0 a7.5 7.5 0 1 0 -15 0zM1863.82 117.96 a7.5 7.5 0 1 0 15 0 a7.5 7.5 0 1 0 -15 0zM1863.82 192.96 a7.5 7.5 0 1 0 15 0 a7.5 7.5 0 1 0 -15 0zM1798.87 230.46 a7.5 7.5 0 1 0 15 0 a7.5 7.5 0 1 0 -15 0zM1733.92 192.96 a7.5 7.5 0 1 0 15 0 a7.5 7.5 0 1 0 -15 0zM1798.87 305.46 a7.5 7.5 0 1 0 15 0 a7.5 7.5 0 1 0 -15 0zM1798.87 530.46 a7.5 7.5 0 1 0 15 0 a7.5 7.5 0 1 0 -15 0zM1863.82 567.96 a7.5 7.5 0 1 0 15 0 a7.5 7.5 0 1 0 -15 0zM1863.82 642.96 a7.5 7.5 0 1 0 15 0 a7.5 7.5 0 1 0 -15 0zM1798.87 680.46 a7.5 7.5 0 1 0 15 0 a7.5 7.5 0 1 0 -15 0zM1733.92 642.96 a7.5 7.5 0 1 0 15 0 a7.5 7.5 0 1 0 -15 0zM1733.92 567.96 a7.5 7.5 0 1 0 15 0 a7.5 7.5 0 1 0 -15 0zM1798.87 755.46 a7.5 7.5 0 1 0 15 0 a7.5 7.5 0 1 0 -15 0zM1863.82 792.96 a7.5 7.5 0 1 0 15 0 a7.5 7.5 0 1 0 -15 0zM1863.82 867.96 a7.5 7.5 0 1 0 15 0 a7.5 7.5 0 1 0 -15 0zM1798.87 905.46 a7.5 7.5 0 1 0 15 0 a7.5 7.5 0 1 0 -15 0zM1798.87 1355.46 a7.5 7.5 0 1 0 15 0 a7.5 7.5 0 1 0 -15 0zM1798.87 1430.46 a7.5 7.5 0 1 0 15 0 a7.5 7.5 0 1 0 -15 0zM1863.82 1467.96 a7.5 7.5 0 1 0 15 0 a7.5 7.5 0 1 0 -15 0zM1863.82 1542.96 a7.5 7.5 0 1 0 15 0 a7.5 7.5 0 1 0 -15 0zM1798.87 1580.46 a7.5 7.5 0 1 0 15 0 a7.5 7.5 0 1 0 -15 0zM1863.82 -32.04 a7.5 7.5 0 1 0 15 0 a7.5 7.5 0 1 0 -15 0zM1928.78 5.46 a7.5 7.5 0 1 0 15 0 a7.5 7.5 0 1 0 -15 0zM1928.78 80.46 a7.5 7.5 0 1 0 15 0 a7.5 7.5 0 1 0 -15 0zM1928.78 305.46 a7.5 7.5 0 1 0 15 0 a7.5 7.5 0 1 0 -15 0zM1993.73 342.96 a7.5 7.5 0 1 0 15 0 a7.5 7.5 0 1 0 -15 0zM1993.73 417.96 a7.5 7.5 0 1 0 15 0 a7.5 7.5 0 1 0 -15 0zM1928.78 455.46 a7.5 7.5 0 1 0 15 0 a7.5 7.5 0 1 0 -15 0zM1863.82 417.96 a7.5 7.5 0 1 0 15 0 a7.5 7.5 0 1 0 -15 0zM1863.82 342.96 a7.5 7.5 0 1 0 15 0 a7.5 7.5 0 1 0 -15 0zM1928.78 680.46 a7.5 7.5 0 1 0 15 0 a7.5 7.5 0 1 0 -15 0zM1928.78 755.46 a7.5 7.5 0 1 0 15 0 a7.5 7.5 0 1 0 -15 0zM1993.73 792.96 a7.5 7.5 0 1 0 15 0 a7.5 7.5 0 1 0 -15 0zM1993.73 867.96 a7.5 7.5 0 1 0 15 0 a7.5 7.5 0 1 0 -15 0zM1928.78 905.46 a7.5 7.5 0 1 0 15 0 a7.5 7.5 0 1 0 -15 0zM1928.78 980.46 a7.5 7.5 0 1 0 15 0 a7.5 7.5 0 1 0 -15 0zM1993.73 1017.96 a7.5 7.5 0 1 0 15 0 a7.5 7.5 0 1 0 -15 0zM1993.73 1092.96 a7.5 7.5 0 1 0 15 0 a7.5 7.5 0 1 0 -15 0zM1928.78 1130.46 a7.5 7.5 0 1 0 15 0 a7.5 7.5 0 1 0 -15 0zM1863.82 1092.96 a7.5 7.5 0 1 0 15 0 a7.5 7.5 0 1 0 -15 0zM1863.82 1017.96 a7.5 7.5 0 1 0 15 0 a7.5 7.5 0 1 0 -15 0zM1928.78 1430.46 a7.5 7.5 0 1 0 15 0 a7.5 7.5 0 1 0 -15 0zM1993.73 1467.96 a7.5 7.5 0 1 0 15 0 a7.5 7.5 0 1 0 -15 0zM1993.73 1542.96 a7.5 7.5 0 1 0 15 0 a7.5 7.5 0 1 0 -15 0zM1928.78 1580.46 a7.5 7.5 0 1 0 15 0 a7.5 7.5 0 1 0 -15 0zM1993.73 -32.04 a7.5 7.5 0 1 0 15 0 a7.5 7.5 0 1 0 -15 0zM2058.69 5.46 a7.5 7.5 0 1 0 15 0 a7.5 7.5 0 1 0 -15 0zM2058.69 80.46 a7.5 7.5 0 1 0 15 0 a7.5 7.5 0 1 0 -15 0zM1993.73 117.96 a7.5 7.5 0 1 0 15 0 a7.5 7.5 0 1 0 -15 0zM1993.73 192.96 a7.5 7.5 0 1 0 15 0 a7.5 7.5 0 1 0 -15 0zM2058.69 230.46 a7.5 7.5 0 1 0 15 0 a7.5 7.5 0 1 0 -15 0zM2058.69 305.46 a7.5 7.5 0 1 0 15 0 a7.5 7.5 0 1 0 -15 0zM1928.78 230.46 a7.5 7.5 0 1 0 15 0 a7.5 7.5 0 1 0 -15 0zM2058.69 905.46 a7.5 7.5 0 1 0 15 0 a7.5 7.5 0 1 0 -15 0zM2058.69 980.46 a7.5 7.5 0 1 0 15 0 a7.5 7.5 0 1 0 -15 0zM2058.69 1205.46 a7.5 7.5 0 1 0 15 0 a7.5 7.5 0 1 0 -15 0zM2123.64 1242.96 a7.5 7.5 0 1 0 15 0 a7.5 7.5 0 1 0 -15 0zM2123.64 1317.96 a7.5 7.5 0 1 0 15 0 a7.5 7.5 0 1 0 -15 0zM2058.69 1355.46 a7.5 7.5 0 1 0 15 0 a7.5 7.5 0 1 0 -15 0zM1993.73 1317.96 a7.5 7.5 0 1 0 15 0 a7.5 7.5 0 1 0 -15 0zM1993.73 1242.96 a7.5 7.5 0 1 0 15 0 a7.5 7.5 0 1 0 -15 0zM2058.69 1430.46 a7.5 7.5 0 1 0 15 0 a7.5 7.5 0 1 0 -15 0zM1928.78 1355.46 a7.5 7.5 0 1 0 15 0 a7.5 7.5 0 1 0 -15 0zM2123.64 -32.04 a7.5 7.5 0 1 0 15 0 a7.5 7.5 0 1 0 -15 0zM2188.59 5.46 a7.5 7.5 0 1 0 15 0 a7.5 7.5 0 1 0 -15 0zM2188.59 80.46 a7.5 7.5 0 1 0 15 0 a7.5 7.5 0 1 0 -15 0zM2123.64 117.96 a7.5 7.5 0 1 0 15 0 a7.5 7.5 0 1 0 -15 0zM2123.64 192.96 a7.5 7.5 0 1 0 15 0 a7.5 7.5 0 1 0 -15 0zM2188.59 230.46 a7.5 7.5 0 1 0 15 0 a7.5 7.5 0 1 0 -15 0zM2188.59 305.46 a7.5 7.5 0 1 0 15 0 a7.5 7.5 0 1 0 -15 0zM2123.64 342.96 a7.5 7.5 0 1 0 15 0 a7.5 7.5 0 1 0 -15 0zM2253.55 342.96 a7.5 7.5 0 1 0 15 0 a7.5 7.5 0 1 0 -15 0zM2253.55 417.96 a7.5 7.5 0 1 0 15 0 a7.5 7.5 0 1 0 -15 0zM2188.59 455.46 a7.5 7.5 0 1 0 15 0 a7.5 7.5 0 1 0 -15 0zM2123.64 417.96 a7.5 7.5 0 1 0 15 0 a7.5 7.5 0 1 0 -15 0zM2188.59 530.46 a7.5 7.5 0 1 0 15 0 a7.5 7.5 0 1 0 -15 0zM2123.64 567.96 a7.5 7.5 0 1 0 15 0 a7.5 7.5 0 1 0 -15 0zM2058.69 530.46 a7.5 7.5 0 1 0 15 0 a7.5 7.5 0 1 0 -15 0zM2058.69 455.46 a7.5 7.5 0 1 0 15 0 a7.5 7.5 0 1 0 -15 0zM2253.55 567.96 a7.5 7.5 0 1 0 15 0 a7.5 7.5 0 1 0 -15 0zM2253.55 642.96 a7.5 7.5 0 1 0 15 0 a7.5 7.5 0 1 0 -15 0zM2188.59 680.46 a7.5 7.5 0 1 0 15 0 a7.5 7.5 0 1 0 -15 0zM2123.64 642.96 a7.5 7.5 0 1 0 15 0 a7.5 7.5 0 1 0 -15 0zM2188.59 755.46 a7.5 7.5 0 1 0 15 0 a7.5 7.5 0 1 0 -15 0zM2123.64 792.96 a7.5 7.5 0 1 0 15 0 a7.5 7.5 0 1 0 -15 0zM2058.69 755.46 a7.5 7.5 0 1 0 15 0 a7.5 7.5 0 1 0 -15 0zM2058.69 680.46 a7.5 7.5 0 1 0 15 0 a7.5 7.5 0 1 0 -15 0zM2123.64 867.96 a7.5 7.5 0 1 0 15 0 a7.5 7.5 0 1 0 -15 0zM2188.59 905.46 a7.5 7.5 0 1 0 15 0 a7.5 7.5 0 1 0 -15 0zM2188.59 980.46 a7.5 7.5 0 1 0 15 0 a7.5 7.5 0 1 0 -15 0zM2123.64 1017.96 a7.5 7.5 0 1 0 15 0 a7.5 7.5 0 1 0 -15 0z" fill="rgba(115, 115, 115, 1)"></path><path d="M45.1 660.94L88.41 685.94L88.41 735.94L45.1 760.94L1.8 735.94L1.8 685.94zM1.8 735.94L45.1 760.94L45.1 810.94L1.8 835.94L-41.5 810.94L-41.5 760.94zM88.41 435.94L131.71 460.94L131.71 510.94L88.41 535.94L45.1 510.94L45.1 460.94zM131.71 510.94L175.01 535.94L175.01 585.94L131.71 610.94L88.41 585.94L88.41 535.94zM131.71 660.94L175.01 685.94L175.01 735.94L131.71 760.94L88.41 735.94L88.41 685.94zM88.41 735.94L131.71 760.94L131.71 810.94L88.41 835.94L45.1 810.94L45.1 760.94zM88.41 1185.94L131.71 1210.94L131.71 1260.94L88.41 1285.94L45.1 1260.94L45.1 1210.94zM131.71 1260.94L175.01 1285.94L175.01 1335.94L131.71 1360.94L88.41 1335.94L88.41 1285.94zM175.01 135.94L218.31 160.94L218.31 210.94L175.01 235.94L131.71 210.94L131.71 160.94zM218.31 360.94L261.62 385.94L261.62 435.94L218.31 460.94L175.01 435.94L175.01 385.94zM175.01 885.94L218.31 910.94L218.31 960.94L175.01 985.94L131.71 960.94L131.71 910.94zM175.01 1035.94L218.31 1060.94L218.31 1110.94L175.01 1135.94L131.71 1110.94L131.71 1060.94zM304.92 60.94L348.22 85.94L348.22 135.94L304.92 160.94L261.62 135.94L261.62 85.94zM304.92 1110.94L348.22 1135.94L348.22 1185.94L304.92 1210.94L261.62 1185.94L261.62 1135.94zM261.62 1185.94L304.92 1210.94L304.92 1260.94L261.62 1285.94L218.31 1260.94L218.31 1210.94zM304.92 1260.94L348.22 1285.94L348.22 1335.94L304.92 1360.94L261.62 1335.94L261.62 1285.94zM261.62 1335.94L304.92 1360.94L304.92 1410.94L261.62 1435.94L218.31 1410.94L218.31 1360.94zM348.22 -14.06L391.52 10.94L391.52 60.94L348.22 85.94L304.92 60.94L304.92 10.94zM391.52 360.94L434.83 385.94L434.83 435.94L391.52 460.94L348.22 435.94L348.22 385.94zM391.52 810.94L434.83 835.94L434.83 885.94L391.52 910.94L348.22 885.94L348.22 835.94zM348.22 1335.94L391.52 1360.94L391.52 1410.94L348.22 1435.94L304.92 1410.94L304.92 1360.94zM391.52 1410.94L434.83 1435.94L434.83 1485.94L391.52 1510.94L348.22 1485.94L348.22 1435.94zM478.13 60.94L521.43 85.94L521.43 135.94L478.13 160.94L434.83 135.94L434.83 85.94zM434.83 135.94L478.13 160.94L478.13 210.94L434.83 235.94L391.52 210.94L391.52 160.94zM478.13 360.94L521.43 385.94L521.43 435.94L478.13 460.94L434.83 435.94L434.83 385.94zM434.83 585.94L478.13 610.94L478.13 660.94L434.83 685.94L391.52 660.94L391.52 610.94zM478.13 810.94L521.43 835.94L521.43 885.94L478.13 910.94L434.83 885.94L434.83 835.94zM478.13 960.94L521.43 985.94L521.43 1035.94L478.13 1060.94L434.83 1035.94L434.83 985.94zM478.13 1260.94L521.43 1285.94L521.43 1335.94L478.13 1360.94L434.83 1335.94L434.83 1285.94zM434.83 1335.94L478.13 1360.94L478.13 1410.94L434.83 1435.94L391.52 1410.94L391.52 1360.94zM478.13 1410.94L521.43 1435.94L521.43 1485.94L478.13 1510.94L434.83 1485.94L434.83 1435.94zM564.73 60.94L608.03 85.94L608.03 135.94L564.73 160.94L521.43 135.94L521.43 85.94zM521.43 135.94L564.73 160.94L564.73 210.94L521.43 235.94L478.13 210.94L478.13 160.94zM521.43 435.94L564.73 460.94L564.73 510.94L521.43 535.94L478.13 510.94L478.13 460.94zM521.43 585.94L564.73 610.94L564.73 660.94L521.43 685.94L478.13 660.94L478.13 610.94zM521.43 885.94L564.73 910.94L564.73 960.94L521.43 985.94L478.13 960.94L478.13 910.94zM564.73 960.94L608.03 985.94L608.03 1035.94L564.73 1060.94L521.43 1035.94L521.43 985.94zM564.73 1410.94L608.03 1435.94L608.03 1485.94L564.73 1510.94L521.43 1485.94L521.43 1435.94zM608.03 135.94L651.34 160.94L651.34 210.94L608.03 235.94L564.73 210.94L564.73 160.94zM608.03 435.94L651.34 460.94L651.34 510.94L608.03 535.94L564.73 510.94L564.73 460.94zM651.34 510.94L694.64 535.94L694.64 585.94L651.34 610.94L608.03 585.94L608.03 535.94zM608.03 885.94L651.34 910.94L651.34 960.94L608.03 985.94L564.73 960.94L564.73 910.94zM651.34 960.94L694.64 985.94L694.64 1035.94L651.34 1060.94L608.03 1035.94L608.03 985.94zM651.34 1110.94L694.64 1135.94L694.64 1185.94L651.34 1210.94L608.03 1185.94L608.03 1135.94zM651.34 1260.94L694.64 1285.94L694.64 1335.94L651.34 1360.94L608.03 1335.94L608.03 1285.94zM694.64 -14.06L737.94 10.94L737.94 60.94L694.64 85.94L651.34 60.94L651.34 10.94zM694.64 135.94L737.94 160.94L737.94 210.94L694.64 235.94L651.34 210.94L651.34 160.94zM737.94 210.94L781.25 235.94L781.25 285.94L737.94 310.94L694.64 285.94L694.64 235.94zM737.94 510.94L781.25 535.94L781.25 585.94L737.94 610.94L694.64 585.94L694.64 535.94zM694.64 735.94L737.94 760.94L737.94 810.94L694.64 835.94L651.34 810.94L651.34 760.94zM737.94 810.94L781.25 835.94L781.25 885.94L737.94 910.94L694.64 885.94L694.64 835.94zM824.55 210.94L867.85 235.94L867.85 285.94L824.55 310.94L781.25 285.94L781.25 235.94zM824.55 360.94L867.85 385.94L867.85 435.94L824.55 460.94L781.25 435.94L781.25 385.94zM824.55 810.94L867.85 835.94L867.85 885.94L824.55 910.94L781.25 885.94L781.25 835.94zM911.15 60.94L954.46 85.94L954.46 135.94L911.15 160.94L867.85 135.94L867.85 85.94zM911.15 210.94L954.46 235.94L954.46 285.94L911.15 310.94L867.85 285.94L867.85 235.94zM911.15 510.94L954.46 535.94L954.46 585.94L911.15 610.94L867.85 585.94L867.85 535.94zM911.15 810.94L954.46 835.94L954.46 885.94L911.15 910.94L867.85 885.94L867.85 835.94zM867.85 1335.94L911.15 1360.94L911.15 1410.94L867.85 1435.94L824.55 1410.94L824.55 1360.94zM997.76 210.94L1041.06 235.94L1041.06 285.94L997.76 310.94L954.46 285.94L954.46 235.94zM954.46 285.94L997.76 310.94L997.76 360.94L954.46 385.94L911.15 360.94L911.15 310.94zM997.76 360.94L1041.06 385.94L1041.06 435.94L997.76 460.94L954.46 435.94L954.46 385.94zM997.76 510.94L1041.06 535.94L1041.06 585.94L997.76 610.94L954.46 585.94L954.46 535.94zM997.76 810.94L1041.06 835.94L1041.06 885.94L997.76 910.94L954.46 885.94L954.46 835.94zM997.76 1110.94L1041.06 1135.94L1041.06 1185.94L997.76 1210.94L954.46 1185.94L954.46 1135.94zM997.76 1410.94L1041.06 1435.94L1041.06 1485.94L997.76 1510.94L954.46 1485.94L954.46 1435.94zM1084.36 60.94L1127.66 85.94L1127.66 135.94L1084.36 160.94L1041.06 135.94L1041.06 85.94zM1041.06 435.94L1084.36 460.94L1084.36 510.94L1041.06 535.94L997.76 510.94L997.76 460.94zM1084.36 510.94L1127.66 535.94L1127.66 585.94L1084.36 610.94L1041.06 585.94L1041.06 535.94zM1084.36 810.94L1127.66 835.94L1127.66 885.94L1084.36 910.94L1041.06 885.94L1041.06 835.94zM1084.36 1110.94L1127.66 1135.94L1127.66 1185.94L1084.36 1210.94L1041.06 1185.94L1041.06 1135.94zM1127.66 -14.06L1170.97 10.94L1170.97 60.94L1127.66 85.94L1084.36 60.94L1084.36 10.94zM1127.66 135.94L1170.97 160.94L1170.97 210.94L1127.66 235.94L1084.36 210.94L1084.36 160.94zM1170.97 360.94L1214.27 385.94L1214.27 435.94L1170.97 460.94L1127.66 435.94L1127.66 385.94zM1127.66 885.94L1170.97 910.94L1170.97 960.94L1127.66 985.94L1084.36 960.94L1084.36 910.94zM1127.66 1335.94L1170.97 1360.94L1170.97 1410.94L1127.66 1435.94L1084.36 1410.94L1084.36 1360.94zM1170.97 1410.94L1214.27 1435.94L1214.27 1485.94L1170.97 1510.94L1127.66 1485.94L1127.66 1435.94zM1257.57 60.94L1300.88 85.94L1300.88 135.94L1257.57 160.94L1214.27 135.94L1214.27 85.94zM1257.57 210.94L1300.88 235.94L1300.88 285.94L1257.57 310.94L1214.27 285.94L1214.27 235.94zM1214.27 285.94L1257.57 310.94L1257.57 360.94L1214.27 385.94L1170.97 360.94L1170.97 310.94zM1214.27 735.94L1257.57 760.94L1257.57 810.94L1214.27 835.94L1170.97 810.94L1170.97 760.94zM1257.57 810.94L1300.88 835.94L1300.88 885.94L1257.57 910.94L1214.27 885.94L1214.27 835.94zM1214.27 1335.94L1257.57 1360.94L1257.57 1410.94L1214.27 1435.94L1170.97 1410.94L1170.97 1360.94zM1300.88 435.94L1344.18 460.94L1344.18 510.94L1300.88 535.94L1257.57 510.94L1257.57 460.94zM1344.18 510.94L1387.48 535.94L1387.48 585.94L1344.18 610.94L1300.88 585.94L1300.88 535.94zM1300.88 735.94L1344.18 760.94L1344.18 810.94L1300.88 835.94L1257.57 810.94L1257.57 760.94zM1344.18 810.94L1387.48 835.94L1387.48 885.94L1344.18 910.94L1300.88 885.94L1300.88 835.94zM1344.18 1110.94L1387.48 1135.94L1387.48 1185.94L1344.18 1210.94L1300.88 1185.94L1300.88 1135.94zM1300.88 1185.94L1344.18 1210.94L1344.18 1260.94L1300.88 1285.94L1257.57 1260.94L1257.57 1210.94zM1344.18 1260.94L1387.48 1285.94L1387.48 1335.94L1344.18 1360.94L1300.88 1335.94L1300.88 1285.94zM1300.88 1335.94L1344.18 1360.94L1344.18 1410.94L1300.88 1435.94L1257.57 1410.94L1257.57 1360.94zM1344.18 1410.94L1387.48 1435.94L1387.48 1485.94L1344.18 1510.94L1300.88 1485.94L1300.88 1435.94zM1387.48 -14.06L1430.78 10.94L1430.78 60.94L1387.48 85.94L1344.18 60.94L1344.18 10.94zM1430.78 60.94L1474.09 85.94L1474.09 135.94L1430.78 160.94L1387.48 135.94L1387.48 85.94zM1387.48 585.94L1430.78 610.94L1430.78 660.94L1387.48 685.94L1344.18 660.94L1344.18 610.94zM1430.78 660.94L1474.09 685.94L1474.09 735.94L1430.78 760.94L1387.48 735.94L1387.48 685.94zM1430.78 1410.94L1474.09 1435.94L1474.09 1485.94L1430.78 1510.94L1387.48 1485.94L1387.48 1435.94zM1474.09 -14.06L1517.39 10.94L1517.39 60.94L1474.09 85.94L1430.78 60.94L1430.78 10.94zM1517.39 60.94L1560.69 85.94L1560.69 135.94L1517.39 160.94L1474.09 135.94L1474.09 85.94zM1474.09 135.94L1517.39 160.94L1517.39 210.94L1474.09 235.94L1430.78 210.94L1430.78 160.94zM1474.09 585.94L1517.39 610.94L1517.39 660.94L1474.09 685.94L1430.78 660.94L1430.78 610.94zM1517.39 660.94L1560.69 685.94L1560.69 735.94L1517.39 760.94L1474.09 735.94L1474.09 685.94zM1474.09 735.94L1517.39 760.94L1517.39 810.94L1474.09 835.94L1430.78 810.94L1430.78 760.94zM1517.39 1110.94L1560.69 1135.94L1560.69 1185.94L1517.39 1210.94L1474.09 1185.94L1474.09 1135.94zM1474.09 1335.94L1517.39 1360.94L1517.39 1410.94L1474.09 1435.94L1430.78 1410.94L1430.78 1360.94zM1560.69 135.94L1603.99 160.94L1603.99 210.94L1560.69 235.94L1517.39 210.94L1517.39 160.94zM1603.99 210.94L1647.3 235.94L1647.3 285.94L1603.99 310.94L1560.69 285.94L1560.69 235.94zM1560.69 285.94L1603.99 310.94L1603.99 360.94L1560.69 385.94L1517.39 360.94L1517.39 310.94zM1560.69 435.94L1603.99 460.94L1603.99 510.94L1560.69 535.94L1517.39 510.94L1517.39 460.94zM1603.99 1260.94L1647.3 1285.94L1647.3 1335.94L1603.99 1360.94L1560.69 1335.94L1560.69 1285.94zM1560.69 1335.94L1603.99 1360.94L1603.99 1410.94L1560.69 1435.94L1517.39 1410.94L1517.39 1360.94zM1647.3 -14.06L1690.6 10.94L1690.6 60.94L1647.3 85.94L1603.99 60.94L1603.99 10.94zM1690.6 60.94L1733.9 85.94L1733.9 135.94L1690.6 160.94L1647.3 135.94L1647.3 85.94zM1647.3 135.94L1690.6 160.94L1690.6 210.94L1647.3 235.94L1603.99 210.94L1603.99 160.94zM1690.6 360.94L1733.9 385.94L1733.9 435.94L1690.6 460.94L1647.3 435.94L1647.3 385.94zM1647.3 435.94L1690.6 460.94L1690.6 510.94L1647.3 535.94L1603.99 510.94L1603.99 460.94zM1647.3 735.94L1690.6 760.94L1690.6 810.94L1647.3 835.94L1603.99 810.94L1603.99 760.94zM1647.3 1035.94L1690.6 1060.94L1690.6 1110.94L1647.3 1135.94L1603.99 1110.94L1603.99 1060.94zM1690.6 1260.94L1733.9 1285.94L1733.9 1335.94L1690.6 1360.94L1647.3 1335.94L1647.3 1285.94zM1777.2 60.94L1820.51 85.94L1820.51 135.94L1777.2 160.94L1733.9 135.94L1733.9 85.94zM1777.2 510.94L1820.51 535.94L1820.51 585.94L1777.2 610.94L1733.9 585.94L1733.9 535.94zM1777.2 660.94L1820.51 685.94L1820.51 735.94L1777.2 760.94L1733.9 735.94L1733.9 685.94zM1777.2 1260.94L1820.51 1285.94L1820.51 1335.94L1777.2 1360.94L1733.9 1335.94L1733.9 1285.94zM1863.81 510.94L1907.11 535.94L1907.11 585.94L1863.81 610.94L1820.51 585.94L1820.51 535.94zM1820.51 585.94L1863.81 610.94L1863.81 660.94L1820.51 685.94L1777.2 660.94L1777.2 610.94zM1863.81 660.94L1907.11 685.94L1907.11 735.94L1863.81 760.94L1820.51 735.94L1820.51 685.94zM1863.81 810.94L1907.11 835.94L1907.11 885.94L1863.81 910.94L1820.51 885.94L1820.51 835.94zM1820.51 1035.94L1863.81 1060.94L1863.81 1110.94L1820.51 1135.94L1777.2 1110.94L1777.2 1060.94zM1863.81 1410.94L1907.11 1435.94L1907.11 1485.94L1863.81 1510.94L1820.51 1485.94L1820.51 1435.94zM1950.41 60.94L1993.72 85.94L1993.72 135.94L1950.41 160.94L1907.11 135.94L1907.11 85.94zM1950.41 210.94L1993.72 235.94L1993.72 285.94L1950.41 310.94L1907.11 285.94L1907.11 235.94zM1907.11 735.94L1950.41 760.94L1950.41 810.94L1907.11 835.94L1863.81 810.94L1863.81 760.94zM1950.41 1260.94L1993.72 1285.94L1993.72 1335.94L1950.41 1360.94L1907.11 1335.94L1907.11 1285.94zM1993.72 -14.06L2037.02 10.94L2037.02 60.94L1993.72 85.94L1950.41 60.94L1950.41 10.94zM2037.02 60.94L2080.32 85.94L2080.32 135.94L2037.02 160.94L1993.72 135.94L1993.72 85.94zM1993.72 285.94L2037.02 310.94L2037.02 360.94L1993.72 385.94L1950.41 360.94L1950.41 310.94zM1993.72 735.94L2037.02 760.94L2037.02 810.94L1993.72 835.94L1950.41 810.94L1950.41 760.94zM1993.72 1185.94L2037.02 1210.94L2037.02 1260.94L1993.72 1285.94L1950.41 1260.94L1950.41 1210.94zM2037.02 1260.94L2080.32 1285.94L2080.32 1335.94L2037.02 1360.94L1993.72 1335.94L1993.72 1285.94zM1993.72 1335.94L2037.02 1360.94L2037.02 1410.94L1993.72 1435.94L1950.41 1410.94L1950.41 1360.94zM2080.32 -14.06L2123.62 10.94L2123.62 60.94L2080.32 85.94L2037.02 60.94L2037.02 10.94zM2123.62 360.94L2166.92 385.94L2166.92 435.94L2123.62 460.94L2080.32 435.94L2080.32 385.94zM2080.32 735.94L2123.62 760.94L2123.62 810.94L2080.32 835.94L2037.02 810.94L2037.02 760.94zM2123.62 1260.94L2166.92 1285.94L2166.92 1335.94L2123.62 1360.94L2080.32 1335.94L2080.32 1285.94zM2080.32 1335.94L2123.62 1360.94L2123.62 1410.94L2080.32 1435.94L2037.02 1410.94L2037.02 1360.94z" stroke="rgba(115, 115, 115, 1)" stroke-width="2"></path></g><defs><mask id="SvgjsMask1017"><rect width="2160" height="1440" fill="#ffffff"></rect></mask></defs></svg>