<svg xmlns="http://www.w3.org/2000/svg" version="1.1" xmlns:xlink="http://www.w3.org/1999/xlink" xmlns:svgjs="http://svgjs.com/svgjs" width="2160" height="1440" preserveAspectRatio="none" viewBox="0 0 2160 1440"><g mask="url(&quot;#SvgjsMask1238&quot;)" fill="none"><rect width="2160" height="1440" x="0" y="0" fill="rgba(6, 19, 31, 1)"></rect><path d="M220 613L1286 1679" stroke-width="8" stroke="url(#SvgjsLinearGradient1239)" stroke-linecap="round" class="BottomRight"></path><path d="M579 119L-206 -666" stroke-width="10" stroke="url(#SvgjsLinearGradient1239)" stroke-linecap="round" class="BottomRight"></path><path d="M531 988L1357 1814" stroke-width="8" stroke="url(#SvgjsLinearGradient1239)" stroke-linecap="round" class="BottomRight"></path><path d="M79 676L-843 -246" stroke-width="8" stroke="url(#SvgjsLinearGradient1240)" stroke-linecap="round" class="TopLeft"></path><path d="M1142 89L714 -339" stroke-width="8" stroke="url(#SvgjsLinearGradient1239)" stroke-linecap="round" class="BottomRight"></path><path d="M1564 497L2523 1456" stroke-width="10" stroke="url(#SvgjsLinearGradient1239)" stroke-linecap="round" class="BottomRight"></path><path d="M1302 103L1834 635" stroke-width="8" stroke="url(#SvgjsLinearGradient1240)" stroke-linecap="round" class="TopLeft"></path><path d="M1448 857L690 99" stroke-width="10" stroke="url(#SvgjsLinearGradient1239)" stroke-linecap="round" class="BottomRight"></path><path d="M570 1369L-106 693" stroke-width="8" stroke="url(#SvgjsLinearGradient1240)" stroke-linecap="round" class="TopLeft"></path><path d="M931 1401L1445 1915" stroke-width="10" stroke="url(#SvgjsLinearGradient1240)" stroke-linecap="round" class="TopLeft"></path><path d="M1273 1305L840 872" stroke-width="8" stroke="url(#SvgjsLinearGradient1240)" stroke-linecap="round" class="TopLeft"></path><path d="M2068 837L2526 1295" stroke-width="8" stroke="url(#SvgjsLinearGradient1240)" stroke-linecap="round" class="TopLeft"></path><path d="M108 381L815 1088" stroke-width="8" stroke="url(#SvgjsLinearGradient1240)" stroke-linecap="round" class="TopLeft"></path><path d="M148 1233L-232 853" stroke-width="10" stroke="url(#SvgjsLinearGradient1240)" stroke-linecap="round" class="TopLeft"></path><path d="M445 873L1449 1877" stroke-width="6" stroke="url(#SvgjsLinearGradient1239)" stroke-linecap="round" class="BottomRight"></path><path d="M11 726L-933 -218" stroke-width="10" stroke="url(#SvgjsLinearGradient1239)" stroke-linecap="round" class="BottomRight"></path><path d="M238 560L-837 -515" stroke-width="10" stroke="url(#SvgjsLinearGradient1239)" stroke-linecap="round" class="BottomRight"></path><path d="M3 956L534 1487" stroke-width="6" stroke="url(#SvgjsLinearGradient1239)" stroke-linecap="round" class="BottomRight"></path><path d="M1990 882L2405 1297" stroke-width="10" stroke="url(#SvgjsLinearGradient1240)" stroke-linecap="round" class="TopLeft"></path><path d="M1125 257L227 -641" stroke-width="8" stroke="url(#SvgjsLinearGradient1239)" stroke-linecap="round" class="BottomRight"></path><path d="M1127 720L2075 1668" stroke-width="10" stroke="url(#SvgjsLinearGradient1239)" stroke-linecap="round" class="BottomRight"></path><path d="M1061 187L53 -821" stroke-width="8" stroke="url(#SvgjsLinearGradient1240)" stroke-linecap="round" class="TopLeft"></path><path d="M364 669L1009 1314" stroke-width="10" stroke="url(#SvgjsLinearGradient1239)" stroke-linecap="round" class="BottomRight"></path><path d="M1193 1337L779 923" stroke-width="6" stroke="url(#SvgjsLinearGradient1239)" stroke-linecap="round" class="BottomRight"></path><path d="M1192 1365L366 539" stroke-width="8" stroke="url(#SvgjsLinearGradient1240)" stroke-linecap="round" class="TopLeft"></path><path d="M311 254L-586 -643" stroke-width="6" stroke="url(#SvgjsLinearGradient1239)" stroke-linecap="round" class="BottomRight"></path><path d="M1881 387L2417 923" stroke-width="8" stroke="url(#SvgjsLinearGradient1239)" stroke-linecap="round" class="BottomRight"></path><path d="M1729 15L980 -734" stroke-width="10" stroke="url(#SvgjsLinearGradient1239)" stroke-linecap="round" class="BottomRight"></path><path d="M430 1222L-127 665" stroke-width="6" stroke="url(#SvgjsLinearGradient1240)" stroke-linecap="round" class="TopLeft"></path><path d="M76 1090L533 1547" stroke-width="6" stroke="url(#SvgjsLinearGradient1240)" stroke-linecap="round" class="TopLeft"></path><path d="M1729 649L2524 1444" stroke-width="8" stroke="url(#SvgjsLinearGradient1239)" stroke-linecap="round" class="BottomRight"></path><path d="M942 1386L1805 2249" stroke-width="10" stroke="url(#SvgjsLinearGradient1239)" stroke-linecap="round" class="BottomRight"></path><path d="M1432 839L2236 1643" stroke-width="10" stroke="url(#SvgjsLinearGradient1240)" stroke-linecap="round" class="TopLeft"></path><path d="M1200 303L294 -603" stroke-width="8" stroke="url(#SvgjsLinearGradient1240)" stroke-linecap="round" class="TopLeft"></path><path d="M235 302L-619 -552" stroke-width="10" stroke="url(#SvgjsLinearGradient1239)" stroke-linecap="round" class="BottomRight"></path><path d="M1941 685L2695 1439" stroke-width="10" stroke="url(#SvgjsLinearGradient1240)" stroke-linecap="round" class="TopLeft"></path><path d="M1860 165L1012 -683" stroke-width="6" stroke="url(#SvgjsLinearGradient1240)" stroke-linecap="round" class="TopLeft"></path><path d="M1717 1177L2079 1539" stroke-width="8" stroke="url(#SvgjsLinearGradient1239)" stroke-linecap="round" class="BottomRight"></path><path d="M500 999L110 609" stroke-width="10" stroke="url(#SvgjsLinearGradient1240)" stroke-linecap="round" class="TopLeft"></path><path d="M1091 1273L1814 1996" stroke-width="10" stroke="url(#SvgjsLinearGradient1240)" stroke-linecap="round" class="TopLeft"></path><path d="M2094 414L1717 37" stroke-width="6" stroke="url(#SvgjsLinearGradient1239)" stroke-linecap="round" class="BottomRight"></path><path d="M560 1247L1077 1764" stroke-width="8" stroke="url(#SvgjsLinearGradient1239)" stroke-linecap="round" class="BottomRight"></path><path d="M1502 988L1927 1413" stroke-width="8" stroke="url(#SvgjsLinearGradient1240)" stroke-linecap="round" class="TopLeft"></path><path d="M609 1286L983 1660" stroke-width="10" stroke="url(#SvgjsLinearGradient1240)" stroke-linecap="round" class="TopLeft"></path><path d="M391 500L971 1080" stroke-width="8" stroke="url(#SvgjsLinearGradient1240)" stroke-linecap="round" class="TopLeft"></path><path d="M430 117L-367 -680" stroke-width="8" stroke="url(#SvgjsLinearGradient1240)" stroke-linecap="round" class="TopLeft"></path><path d="M801 171L1575 945" stroke-width="6" stroke="url(#SvgjsLinearGradient1239)" stroke-linecap="round" class="BottomRight"></path><path d="M2010 957L955 -98" stroke-width="6" stroke="url(#SvgjsLinearGradient1239)" stroke-linecap="round" class="BottomRight"></path><path d="M809 337L1458 986" stroke-width="8" stroke="url(#SvgjsLinearGradient1239)" stroke-linecap="round" class="BottomRight"></path><path d="M1081 949L625 493" stroke-width="8" stroke="url(#SvgjsLinearGradient1240)" stroke-linecap="round" class="TopLeft"></path><path d="M826 1304L-88 390" stroke-width="6" stroke="url(#SvgjsLinearGradient1240)" stroke-linecap="round" class="TopLeft"></path><path d="M2107 1130L1245 268" stroke-width="10" stroke="url(#SvgjsLinearGradient1240)" stroke-linecap="round" class="TopLeft"></path><path d="M1795 1327L815 347" stroke-width="8" stroke="url(#SvgjsLinearGradient1240)" stroke-linecap="round" class="TopLeft"></path><path d="M1999 1287L2795 2083" stroke-width="6" stroke="url(#SvgjsLinearGradient1240)" stroke-linecap="round" class="TopLeft"></path><path d="M262 850L723 1311" stroke-width="6" stroke="url(#SvgjsLinearGradient1239)" stroke-linecap="round" class="BottomRight"></path><path d="M1765 30L907 -828" stroke-width="10" stroke="url(#SvgjsLinearGradient1240)" stroke-linecap="round" class="TopLeft"></path><path d="M722 200L1494 972" stroke-width="8" stroke="url(#SvgjsLinearGradient1239)" stroke-linecap="round" class="BottomRight"></path><path d="M1247 964L1996 1713" stroke-width="10" stroke="url(#SvgjsLinearGradient1240)" stroke-linecap="round" class="TopLeft"></path><path d="M1208 551L752 95" stroke-width="6" stroke="url(#SvgjsLinearGradient1240)" stroke-linecap="round" class="TopLeft"></path><path d="M1185 589L436 -160" stroke-width="10" stroke="url(#SvgjsLinearGradient1240)" stroke-linecap="round" class="TopLeft"></path><path d="M647 216L1436 1005" stroke-width="8" stroke="url(#SvgjsLinearGradient1239)" stroke-linecap="round" class="BottomRight"></path><path d="M1637 605L1130 98" stroke-width="10" stroke="url(#SvgjsLinearGradient1239)" stroke-linecap="round" class="BottomRight"></path><path d="M1189 13L1850 674" stroke-width="10" stroke="url(#SvgjsLinearGradient1239)" stroke-linecap="round" class="BottomRight"></path><path d="M1749 725L2117 1093" stroke-width="8" stroke="url(#SvgjsLinearGradient1240)" stroke-linecap="round" class="TopLeft"></path><path d="M1312 1174L896 758" stroke-width="8" stroke="url(#SvgjsLinearGradient1239)" stroke-linecap="round" class="BottomRight"></path></g><defs><mask id="SvgjsMask1238"><rect width="2160" height="1440" fill="#ffffff"></rect></mask><linearGradient x1="0%" y1="0%" x2="100%" y2="100%" id="SvgjsLinearGradient1239"><stop stop-color="rgba(115, 117, 141, 0)" offset="0"></stop><stop stop-color="rgba(115, 117, 141, 1)" offset="1"></stop></linearGradient><linearGradient x1="100%" y1="100%" x2="0%" y2="0%" id="SvgjsLinearGradient1240"><stop stop-color="rgba(115, 117, 141, 0)" offset="0"></stop><stop stop-color="rgba(115, 117, 141, 1)" offset="1"></stop></linearGradient></defs></svg>